<svg width="456" height="109" viewBox="0 0 456 109" fill="none" xmlns="http://www.w3.org/2000/svg">
<path d="M326.81 59.09C325.584 59.0995 324.363 58.9413 323.18 58.62C321.11 58.13 318.58 56.73 315.41 50.11C311.41 41.61 302.82 22.76 297.72 11.5L293.84 3C292.73 0.58 292.3 0 291.54 0C290.78 0 290.38 0.57 289.24 3.22L268.24 51.76C266.44 55.97 264.63 58.5 260.69 58.93C259.94 59.01 258.69 59.09 258.04 59.09C257.39 59.09 256.92 59.38 256.92 59.84C256.92 60.68 257.98 60.75 258.92 60.75C261.85 60.75 265.11 60.65 267.26 60.58C268.26 60.58 269.05 60.52 269.38 60.52C269.71 60.52 270.69 60.52 271.73 60.6C273.31 60.67 275.27 60.75 276.6 60.75C277.01 60.75 278.27 60.75 278.27 59.84C278.27 59.34 277.86 59.09 277.06 59.09H276.13C274.89 59.09 272.9 58.55 272.9 57.09C273.008 55.3242 273.457 53.596 274.22 52L279.77 38.18C279.812 38.0404 279.901 37.9191 280.02 37.8356C280.14 37.7522 280.284 37.7115 280.43 37.72H300.34C300.455 37.7005 300.573 37.7193 300.676 37.7735C300.779 37.8277 300.861 37.9143 300.91 38.02L309.52 57.24C309.63 57.4361 309.697 57.6537 309.716 57.878C309.735 58.1023 309.706 58.3281 309.63 58.54C309.584 58.6382 309.519 58.726 309.438 58.7982C309.357 58.8704 309.263 58.9255 309.16 58.96C308.44 59.11 308.29 59.49 308.29 59.78C308.29 60.49 309.17 60.52 310.91 60.6H311.35C315.47 60.7 320.63 60.75 325.89 60.75C326.42 60.75 328.02 60.75 328.02 59.84C328 59.09 327.17 59.09 326.81 59.09ZM281.39 34.31C281.397 34.2541 281.414 34.2 281.44 34.15L289.59 13.05C289.83 12.43 290 12.36 290.01 12.35C290.02 12.34 290.2 12.43 290.44 13.06L299.23 34.13C299.23 34.23 299.23 34.28 299.23 34.3H281.39V34.31ZM178.21 45.68C178.13 48.3794 177.36 51.0133 175.973 53.3309C174.587 55.6485 172.63 57.5726 170.29 58.92C166.003 61.2571 161.17 62.4067 156.29 62.25C152.059 62.3676 147.847 61.6401 143.9 60.11C142.47 59.5 142.35 59.11 142.35 56.87C142.35 53.71 142.59 51.07 142.73 49.5C142.73 49.12 142.8 48.8 142.81 48.5C142.87 47.97 142.98 46.99 143.81 46.99C144.64 46.99 144.74 47.55 144.74 48.13C144.709 49.0937 144.796 50.0576 145 51C146.16 55.86 151.12 58.77 158.28 58.77C166.69 58.77 171.09 53.67 171.09 48.64C171.09 43.61 168.86 40.55 160.68 34.79L156.56 31.89C146.56 24.89 144.56 19.94 144.56 14.67C144.57 6 152.13 0.31 163.82 0.31C166.696 0.276332 169.568 0.541082 172.39 1.1C173.426 1.32278 174.481 1.44998 175.54 1.48C176.16 1.48 176.74 1.58 176.74 2.32C176.74 2.4 176.74 2.6 176.74 2.9C176.64 3.96 176.42 6.44 176.42 10.61C176.42 11.7 176.3 12.7 175.49 12.7C174.68 12.7 174.56 12 174.49 11.44C174.323 10.1178 173.934 8.83319 173.34 7.64C172.57 6.43 169.94 3.64 162.14 3.64C155.57 3.64 151.14 7.17 151.14 12.43C151.14 16.78 153.51 19.56 162.14 25.34L164.71 27.07C176 34.65 178.21 39.64 178.21 45.68ZM244.15 51.47C243.899 54.0483 243.495 56.6095 242.94 59.14C242.24 61.38 241.28 61.38 237.72 61.38C232.06 61.38 227.56 61.28 224.27 61.2L222.27 61.15C218.41 60.98 216.41 60.91 215.13 60.91C214.72 60.91 213.26 60.91 211.48 60.99C210.48 60.99 209.48 60.99 208.48 61.08C207.63 61.08 206.83 61.15 206.19 61.15C205.55 61.15 204.43 61.15 204.43 60.24C204.43 59.87 204.7 59.48 205.43 59.48C206.337 59.4565 207.241 59.3528 208.13 59.17C209.67 58.91 210.13 57.6 210.55 55.1C211.01 51.84 211.01 45.81 211.01 38.16V24.39C211.01 12.19 211.01 10 210.83 7.5C210.65 5 210.08 3.84 207.12 3.3C206.088 3.14079 205.044 3.06388 204 3.07C203.4 3.07 203 2.76 203 2.32C203 1.4 204.18 1.4 204.75 1.4C206.9 1.4 209.34 1.4 211.36 1.48L215.11 1.64C215.87 1.64 233.99 1.64 236.06 1.56C237.381 1.52429 238.697 1.39732 240 1.18C240.175 1.13502 240.346 1.07479 240.51 1C240.768 0.869737 241.051 0.794807 241.34 0.78C241.54 0.78 242 0.87 242 1.78C241.976 2.1205 241.909 2.45657 241.8 2.78C241.553 3.66865 241.372 4.5745 241.26 5.49C241.26 5.77 241.19 6.38 241.14 7.09C241.04 8.41 240.92 10.09 240.8 10.68C240.59 11.58 240.18 11.77 239.88 11.77C239.42 11.77 238.88 11.54 238.88 10.47C238.885 9.54464 238.708 8.6273 238.36 7.77C237.78 6.64 236.95 5.77 232.09 5.27C230.5 5.11 220.59 5 219.5 5C219.39 5 219.23 5 219.23 5.49V27.13C219.23 27.63 219.29 27.63 219.5 27.63C221.58 27.63 232.04 27.63 234.04 27.47C236.04 27.31 237.4 27.18 238.17 26.47L238.32 26.32C238.92 25.73 239.32 25.37 239.74 25.37C239.96 25.37 240.48 25.46 240.48 26.29C240.458 26.6276 240.404 26.9623 240.32 27.29C240.063 28.4245 239.872 29.5731 239.75 30.73C239.56 32.33 239.38 35.2 239.38 35.73C239.38 36.39 239.38 37.5 238.46 37.5C238.33 37.5069 238.2 37.4851 238.079 37.4363C237.959 37.3874 237.85 37.3127 237.761 37.2173C237.673 37.122 237.606 37.0083 237.566 36.8844C237.526 36.7604 237.514 36.6292 237.53 36.5C237.574 35.6585 237.455 34.8165 237.18 34.02C236.81 32.92 235.99 31.76 232.66 31.47C230.2 31.23 221.13 31.07 219.59 31.07C219.23 31.07 219.23 31.24 219.23 31.34V38.22C219.23 38.97 219.23 40.22 219.23 41.67C219.23 45.36 219.18 50.42 219.23 51.59C219.51 56.94 220.86 57.74 229.57 57.74C231.95 57.74 235.93 57.74 238.27 56.9C240.61 56.06 241.58 54.62 242.21 51.47C242.36 50.73 242.57 50.07 243.31 50.07C244.05 50.07 244.15 50.93 244.15 51.47ZM409.99 59.47C408.806 59.4749 407.623 59.3981 406.45 59.24C404 58.9 400.18 57.96 395.45 53.68C390.72 49.4 385.37 43.5 379.1 36.63L376.61 33.89C384.08 27.94 387.56 22.18 387.56 15.78C387.56 10.32 383.5 6.37 381.1 4.89C376.1 1.82 369.74 1.4 364.19 1.4C362.41 1.4 358.98 1.5 356.47 1.57L353.39 1.64H352.17C350.17 1.58 346.17 1.44 343.04 1.44C342.47 1.44 341.29 1.44 341.29 2.36C341.29 2.8 341.71 3.11 342.29 3.11C343.314 3.10743 344.337 3.18433 345.35 3.34C348.35 3.88 348.88 5.07 349.05 7.54C349.22 10.01 349.23 12.23 349.23 24.43V38.16C349.23 45.81 349.23 51.84 348.78 55.1C348.38 57.6 347.89 58.91 346.35 59.17C345.464 59.3533 344.564 59.457 343.66 59.48C342.91 59.48 342.66 59.87 342.66 60.24C342.66 61.15 343.84 61.15 344.41 61.15C346.74 61.15 351.16 60.98 352.62 60.93H353.02H354.11C356.16 60.99 360.41 61.13 364.29 61.13C365.73 61.13 366.04 60.63 366.04 60.22C366.04 59.81 365.77 59.46 365.04 59.46C364.31 59.46 362.26 59.31 360.95 59.15C358.54 58.88 357.95 57.51 357.63 55.09C357.17 51.82 357.17 45.79 357.17 38.09V36.29C357.17 36.03 357.26 35.95 357.53 35.95L368.79 36.1C368.974 36.0868 369.159 36.1139 369.332 36.1796C369.505 36.2452 369.661 36.3477 369.79 36.48C370.57 37.34 371.79 38.8 373.23 40.48C375.16 42.76 377.56 45.58 379.77 48.06L380.94 49.37C385.52 54.54 388.54 57.95 392.23 59.64C394.72 60.78 397.13 61.15 402.15 61.15H408.65C410.06 61.15 411.14 61.08 411.14 60.24C411.1 59.82 410.6 59.48 410 59.48L409.99 59.47ZM357.15 5.6C357.148 5.44718 357.199 5.2984 357.294 5.17836C357.388 5.05831 357.521 4.97421 357.67 4.94C359.674 4.59586 361.707 4.44184 363.74 4.48C373.48 4.48 379.3 10.23 379.3 19.85C379.3 25.24 377.3 29.66 373.85 31.66C371.773 32.716 369.457 33.2123 367.13 33.1C363.13 33.1 358.97 32.57 357.64 31.88C357.21 31.66 357.15 31.41 357.15 31.2V5.6ZM455.15 45.68C455.07 48.3806 454.299 51.0155 452.91 53.3333C451.522 55.6512 449.563 57.5746 447.22 58.92C442.934 61.2598 438.1 62.4096 433.22 62.25C428.989 62.3676 424.777 61.6401 420.83 60.11C419.4 59.5 419.29 59.11 419.29 56.87C419.29 53.71 419.52 51.07 419.66 49.49C419.66 49.11 419.73 48.8 419.74 48.55C419.8 48.02 419.9 47.04 420.74 47.04C421.58 47.04 421.67 47.6 421.67 48.18C421.666 49.1299 421.777 50.0767 422 51C423.16 55.86 428.12 58.77 435.28 58.77C443.69 58.77 448.09 53.67 448.09 48.64C448.09 43.61 445.85 40.55 437.68 34.79L433.56 31.89C423.56 24.89 421.56 19.94 421.56 14.67C421.51 6 429.07 0.31 440.76 0.31C443.636 0.276332 446.508 0.541082 449.33 1.1C450.366 1.32278 451.421 1.44998 452.48 1.48C453.1 1.48 453.68 1.58 453.68 2.32C453.68 2.4 453.68 2.6 453.68 2.9C453.58 3.96 453.36 6.44 453.36 10.61C453.36 11.7 453.24 12.7 452.43 12.7C451.62 12.7 451.49 12 451.43 11.44C451.263 10.1178 450.874 8.83319 450.28 7.64C449.51 6.43 446.88 3.64 439.08 3.64C432.51 3.64 428.08 7.17 428.08 12.43C428.08 16.78 430.45 19.55 439.08 25.34L441.65 27.07C452.94 34.65 455.15 39.64 455.15 45.68Z" fill="#6D6E71"/>
<path d="M153.37 88.66C153.352 89.4889 153.125 90.2999 152.711 91.0181C152.297 91.7364 151.708 92.3389 151 92.77C149.752 93.4752 148.333 93.8213 146.9 93.77C145.661 93.8034 144.428 93.5786 143.28 93.11C142.78 92.89 142.75 92.67 142.75 92.02C142.75 91.02 142.82 90.25 142.86 89.78V89.49C142.86 89.33 142.92 88.92 143.28 88.92C143.64 88.92 143.67 89.26 143.67 89.39C143.661 89.6689 143.688 89.9478 143.75 90.22C144.21 92.22 146.49 92.47 147.45 92.47C149.79 92.47 151.01 90.99 151.01 89.53C151.01 88.07 150.38 87.15 148.06 85.44L146.88 84.56C143.96 82.41 143.36 80.88 143.36 79.25C143.36 76.57 145.64 74.77 149.03 74.77C149.869 74.7617 150.707 74.8422 151.53 75.01C151.819 75.0793 152.113 75.1195 152.41 75.13C152.73 75.13 152.89 75.25 152.89 75.5C152.89 75.5 152.89 75.59 152.89 75.69C152.89 76.01 152.8 76.76 152.8 78.01C152.8 78.24 152.8 78.77 152.41 78.77C152.02 78.77 152.01 78.44 151.99 78.28C151.941 77.8989 151.833 77.5277 151.67 77.18C151.46 76.83 150.73 76.02 148.55 76.02C146.74 76.02 145.55 77.02 145.55 78.56C145.55 79.82 146.22 80.64 148.68 82.37L149.42 82.89C152.72 85.25 153.37 86.79 153.37 88.66ZM183.23 92.74C182.67 92.7479 182.111 92.6772 181.57 92.53C180.63 92.26 180.42 91.18 180.29 90.2L178.53 75.63C178.53 75.32 178.43 74.8 178 74.8C177.57 74.8 177.5 75.12 177.42 75.29L169.84 89.82L162 75.27C161.88 75.03 161.72 74.8 161.42 74.8C161.12 74.8 160.96 74.96 160.92 75.41L159 90.86V91C158.88 92 158.77 92.59 158.12 92.7C157.872 92.7435 157.621 92.7636 157.37 92.76C157.09 92.76 156.9 92.9 156.9 93.09C156.9 93.28 157.01 93.52 157.55 93.52C158.09 93.52 158.69 93.52 159.18 93.52H159.77H160.24C160.76 93.52 161.56 93.58 162.24 93.58C162.42 93.58 162.92 93.58 162.92 93.15C162.907 93.0508 162.856 92.9605 162.778 92.8988C162.699 92.837 162.599 92.8087 162.5 92.82C162.164 92.817 161.829 92.7802 161.5 92.71C161.365 92.6964 161.239 92.6359 161.144 92.5391C161.049 92.4423 160.991 92.3152 160.98 92.18C160.98 91.78 160.98 91.36 160.98 90.99L161.98 80.56C162.76 82.11 164.98 86.44 165.23 86.84L165.34 87.03C166.91 89.86 167.91 91.65 168.34 92.34L168.4 92.43C168.91 93.3 169.04 93.53 169.34 93.53C169.64 93.53 169.79 93.31 170.21 92.53L176.61 80.35L177.82 92C177.853 92.2087 177.853 92.4213 177.82 92.63C177.735 92.6443 177.658 92.6885 177.603 92.7545C177.548 92.8205 177.519 92.9041 177.52 92.99C177.52 93.36 178.02 93.4 178.46 93.44C179.46 93.51 182.25 93.53 182.88 93.53C183.51 93.53 183.65 93.24 183.65 93.11C183.65 92.98 183.61 92.74 183.23 92.74ZM193.23 92.74C192.842 92.7296 192.455 92.6996 192.07 92.65C191.45 92.58 191.3 92.23 191.22 91.53C191.09 90.53 191.09 88.63 191.09 86.42V82.21C191.09 78.53 191.09 77.86 191.09 77.11C191.09 76.36 191.33 76.05 191.89 75.95C192.098 75.9164 192.309 75.8964 192.52 75.89C192.572 75.8955 192.624 75.8904 192.673 75.8751C192.723 75.8597 192.768 75.8344 192.808 75.8007C192.847 75.767 192.879 75.7256 192.902 75.679C192.925 75.6325 192.938 75.5818 192.94 75.53C192.94 75.13 192.46 75.13 192.31 75.13C191.74 75.13 190.75 75.13 190.15 75.19H189.31C188.74 75.19 187.68 75.13 187.05 75.13C186.9 75.13 186.42 75.13 186.42 75.53C186.422 75.5818 186.435 75.6325 186.458 75.679C186.481 75.7256 186.513 75.767 186.552 75.8007C186.592 75.8344 186.637 75.8597 186.687 75.8751C186.736 75.8904 186.788 75.8955 186.84 75.89C187.103 75.8878 187.365 75.918 187.62 75.98C188.02 76.06 188.29 76.28 188.35 77.11C188.41 77.94 188.35 78.53 188.35 82.21V86.39C188.35 88.6 188.35 90.52 188.22 91.5C188.11 92.19 187.99 92.56 187.62 92.62C187.374 92.6744 187.122 92.7045 186.87 92.71C186.818 92.7029 186.766 92.7069 186.715 92.7217C186.665 92.7364 186.619 92.7617 186.579 92.7957C186.539 92.8297 186.507 92.8717 186.485 92.919C186.463 92.9663 186.451 93.0177 186.45 93.07C186.45 93.47 186.93 93.47 187.08 93.47C187.65 93.47 188.64 93.47 189.23 93.41H189.98C190.57 93.41 191.8 93.47 192.92 93.47C193.47 93.47 193.55 93.22 193.55 93.07C193.55 92.986 193.521 92.9046 193.468 92.8391C193.415 92.7737 193.342 92.7282 193.26 92.71L193.23 92.74ZM213.4 75H213.13L212.63 75.09C212.02 75.1711 211.405 75.2078 210.79 75.2H200.89C200.57 75.2 199.56 75.2 198.82 75.09C198.524 75.0723 198.233 75.0047 197.96 74.89C197.861 74.8385 197.752 74.8078 197.64 74.8C197.39 74.8 197.28 75.11 197.17 75.4C197.17 75.4 196.58 77.63 196.58 77.93C196.573 77.981 196.577 78.0328 196.591 78.0823C196.605 78.1318 196.629 78.1777 196.662 78.2172C196.695 78.2568 196.736 78.289 196.782 78.3118C196.828 78.3347 196.879 78.3477 196.93 78.35C197.033 78.3452 197.133 78.3078 197.214 78.2431C197.294 78.1785 197.353 78.0898 197.38 77.99C197.5 77.7431 197.644 77.5086 197.81 77.29C198.18 76.79 198.75 76.64 200.33 76.62L204.03 76.57V86.39C204.03 88.6 204.03 90.52 203.9 91.5C203.79 92.19 203.67 92.56 203.3 92.62C203.054 92.6744 202.802 92.7045 202.55 92.71C202.498 92.7029 202.446 92.7069 202.395 92.7217C202.345 92.7364 202.299 92.7617 202.259 92.7957C202.219 92.8297 202.187 92.8717 202.165 92.919C202.143 92.9663 202.131 93.0177 202.13 93.07C202.13 93.47 202.6 93.47 202.76 93.47C203.33 93.47 204.32 93.47 204.91 93.41H205.66C206.25 93.41 207.48 93.47 208.59 93.47C209.15 93.47 209.23 93.22 209.23 93.07C209.229 93.0177 209.217 92.9663 209.195 92.919C209.173 92.8717 209.141 92.8297 209.101 92.7957C209.061 92.7617 209.015 92.7364 208.965 92.7217C208.914 92.7069 208.862 92.7029 208.81 92.71C208.419 92.6997 208.028 92.6697 207.64 92.62C207.03 92.55 206.88 92.2 206.8 91.5C206.67 90.5 206.67 88.6 206.67 86.39V76.58H209.78C212.37 76.58 212.78 77.2 212.78 77.69V77.95C212.78 78.17 212.78 78.55 213.2 78.55C213.38 78.55 213.59 78.41 213.59 78.03C213.59 77.93 213.59 77.64 213.59 77.28C213.59 76.68 213.64 75.87 213.64 75.42C213.74 75.33 213.74 75 213.4 75ZM237.9 92.74C237.509 92.7297 237.118 92.6997 236.73 92.65C236.12 92.58 235.97 92.23 235.89 91.53C235.76 90.53 235.76 88.63 235.76 86.42V82.21C235.76 78.53 235.76 77.86 235.81 77.11C235.86 76.36 236.05 76.05 236.61 75.95C236.818 75.9164 237.029 75.8964 237.24 75.89C237.292 75.8955 237.344 75.8904 237.393 75.8751C237.443 75.8597 237.488 75.8344 237.528 75.8007C237.567 75.767 237.599 75.7256 237.622 75.679C237.645 75.6325 237.658 75.5818 237.66 75.53C237.66 75.13 237.2 75.13 237.03 75.13C236.46 75.13 235.47 75.13 234.88 75.19H234.09C233.53 75.19 232.35 75.13 231.46 75.13C231.3 75.13 230.82 75.13 230.82 75.53C230.824 75.5822 230.838 75.6331 230.862 75.6797C230.886 75.7263 230.919 75.7676 230.959 75.8012C230.999 75.8348 231.045 75.86 231.095 75.8752C231.145 75.8905 231.198 75.8955 231.25 75.89C231.534 75.889 231.819 75.9091 232.1 75.95C232.87 76.1 233.02 76.38 233.1 77.11C233.18 77.84 233.15 78.53 233.15 82.21V82.64H222V82.21C222 78.53 222 77.86 222.05 77.11C222.1 76.36 222.29 76.05 222.85 75.95C223.059 75.9167 223.269 75.8967 223.48 75.89C223.532 75.8955 223.584 75.8904 223.633 75.8751C223.683 75.8597 223.728 75.8344 223.768 75.8007C223.807 75.767 223.839 75.7256 223.862 75.679C223.885 75.6325 223.898 75.5818 223.9 75.53C223.9 75.13 223.43 75.13 223.27 75.13C222.7 75.13 221.71 75.13 221.12 75.19H220.33C219.77 75.19 218.59 75.13 217.7 75.13C217.54 75.13 217.07 75.13 217.07 75.53C217.072 75.5818 217.085 75.6325 217.108 75.679C217.131 75.7256 217.163 75.767 217.202 75.8007C217.242 75.8344 217.287 75.8597 217.337 75.8751C217.386 75.8904 217.438 75.8955 217.49 75.89C217.778 75.889 218.065 75.9091 218.35 75.95C219.11 76.1 219.26 76.38 219.35 77.11C219.44 77.84 219.35 78.53 219.35 82.21V86.39C219.35 88.6 219.35 90.52 219.22 91.5C219.12 92.19 218.99 92.56 218.62 92.62C218.374 92.6744 218.122 92.7045 217.87 92.71C217.818 92.7029 217.766 92.7069 217.715 92.7217C217.665 92.7364 217.619 92.7617 217.579 92.7957C217.539 92.8297 217.507 92.8717 217.485 92.919C217.463 92.9663 217.451 93.0177 217.45 93.07C217.45 93.47 217.93 93.47 218.08 93.47C218.65 93.47 219.64 93.47 220.24 93.41H221C221.59 93.41 222.82 93.47 223.94 93.47C224.49 93.47 224.57 93.22 224.57 93.07C224.569 93.0177 224.557 92.9663 224.535 92.919C224.513 92.8717 224.481 92.8297 224.441 92.7957C224.401 92.7617 224.355 92.7364 224.305 92.7217C224.254 92.7069 224.202 92.7029 224.15 92.71C223.762 92.6996 223.375 92.6696 222.99 92.62C222.37 92.55 222.22 92.2 222.14 91.5C222.01 90.5 222.01 88.6 222.01 86.39V84H233.1V86.42C233.1 88.63 233.1 90.55 232.97 91.53C232.86 92.22 232.74 92.59 232.37 92.65C232.124 92.7044 231.872 92.7345 231.62 92.74C231.568 92.7329 231.516 92.7369 231.465 92.7517C231.415 92.7664 231.369 92.7917 231.329 92.8257C231.289 92.8597 231.257 92.9017 231.235 92.949C231.213 92.9963 231.201 93.0477 231.2 93.1C231.2 93.5 231.66 93.5 231.83 93.5C232.4 93.5 233.39 93.5 233.99 93.44H234.73C235.32 93.44 236.55 93.5 237.67 93.5C238.22 93.5 238.3 93.25 238.3 93.1C238.303 93.0471 238.295 92.9942 238.276 92.9448C238.256 92.8955 238.227 92.8508 238.189 92.8138C238.151 92.7768 238.106 92.7484 238.056 92.7305C238.006 92.7126 237.953 92.7056 237.9 92.71V92.74ZM272.9 93.12C272.9 93.35 272.64 93.5 272.24 93.5H269.66C267.66 93.5 267 93.32 264.18 91.33C262.383 92.9868 260.014 93.8829 257.57 93.83C252.74 93.83 250.94 90.49 250.94 88.38C250.94 86.06 252.34 84.02 254.87 82.6C254.114 81.7046 253.696 80.572 253.69 79.4C253.69 77.53 255.78 74.83 259.57 74.83C260.698 74.7926 261.82 75.0008 262.86 75.44C263.014 75.5011 263.143 75.6122 263.227 75.7555C263.31 75.8987 263.343 76.0658 263.32 76.23C263.309 77.1562 263.245 78.0809 263.13 79C263.07 79.27 262.98 79.56 262.66 79.56C262.34 79.56 262.29 79.18 262.29 78.9C262.305 78.5545 262.245 78.2098 262.116 77.889C261.987 77.5683 261.79 77.2788 261.54 77.04C260.868 76.4009 259.977 76.0431 259.05 76.04C258.657 76.0138 258.263 76.0691 257.892 76.2023C257.522 76.3355 257.183 76.5439 256.896 76.8142C256.61 77.0846 256.383 77.4112 256.228 77.7736C256.074 78.1359 255.996 78.5262 256 78.92C256 80.64 257.32 82.11 260.11 84.84C260.94 85.64 263.85 88.1 264.92 88.93C265.625 87.8505 266 86.5892 266 85.3C266.002 85.1125 265.965 84.9266 265.891 84.7544C265.817 84.5821 265.708 84.4273 265.57 84.3C265.229 84.0684 264.821 83.956 264.41 83.98C264.02 83.98 263.89 83.77 263.89 83.6C263.89 83.43 263.95 83.22 264.52 83.22C265.52 83.22 266.52 83.28 267.71 83.39C268.15 83.44 268.37 83.67 268.37 84.07C268.37 85.92 267.1 88.2 265.86 89.64C266.934 90.4709 268.082 91.2007 269.29 91.82C270.217 92.325 271.238 92.6315 272.29 92.72C272.55 92.71 273 92.71 273 93.09L272.9 93.12ZM263.15 90.62C261.65 89.49 259.24 87.41 258.56 86.76C258.34 86.54 256.46 84.76 255.56 83.57C254.904 83.9364 254.36 84.4743 253.987 85.1261C253.614 85.7778 253.424 86.519 253.44 87.27C253.438 87.9276 253.569 88.5787 253.826 89.1842C254.082 89.7896 254.459 90.3368 254.933 90.7928C255.407 91.2488 255.968 91.6042 256.583 91.8374C257.197 92.0707 257.853 92.177 258.51 92.15C260.21 92.2085 261.874 91.6549 263.2 90.59L263.15 90.62ZM299.54 93.1C299.54 93.36 299.29 93.5 298.8 93.5C297.3 93.5 295.8 93.5 294.65 93.5H294.52C294.02 93.5 293.65 93.5 293.65 93.12C293.654 93.0266 293.692 92.9379 293.756 92.87C293.82 92.8021 293.907 92.7595 294 92.75C294.021 92.7028 294.032 92.6517 294.032 92.6C294.032 92.5483 294.021 92.4972 294 92.45L291.55 86.62H285.83C285.83 86.62 285.83 86.62 285.76 86.68L284.18 90.86C283.97 91.3411 283.848 91.8559 283.82 92.38C283.82 92.71 284.29 92.85 284.61 92.85H284.88C285.31 92.85 285.35 93.1 285.35 93.21C285.35 93.32 285.25 93.61 284.75 93.61C284.25 93.61 283.81 93.61 283.35 93.61H282.69H282.09C281.47 93.61 280.54 93.67 279.7 93.67C279.49 93.67 278.99 93.67 278.99 93.27C278.99 93.09 279.13 92.91 279.44 92.91H280.18C281.24 92.78 281.73 92.05 282.23 90.81L288.23 76.1C288.54 75.33 288.69 75.04 289.01 75.04C289.33 75.04 289.48 75.32 289.78 76.04L291 78.39C292.45 81.8 294.88 87.5 296 90.07C296.88 92.07 297.57 92.44 298.13 92.58C298.455 92.6712 298.792 92.715 299.13 92.71C299.51 92.71 299.59 92.91 299.59 93.07L299.54 93.1ZM288.54 78.96L286.26 85.24H291L288.54 78.96ZM308.21 82.96L307.47 82.44C305.01 80.71 304.34 79.9 304.34 78.63C304.34 77.11 305.56 76.09 307.34 76.09C309.58 76.09 310.34 76.98 310.46 77.25C310.615 77.5999 310.72 77.9704 310.77 78.35C310.77 78.51 310.84 78.84 311.19 78.84C311.54 78.84 311.59 78.31 311.59 78.08C311.59 76.83 311.65 76.08 311.68 75.76C311.683 75.6967 311.683 75.6333 311.68 75.57C311.68 75.32 311.52 75.2 311.21 75.2C310.913 75.1907 310.618 75.1505 310.33 75.08C309.507 74.9128 308.669 74.8323 307.83 74.84C304.43 74.84 302.15 76.64 302.15 79.32C302.15 80.95 302.75 82.48 305.67 84.63L306.86 85.51C309.17 87.22 309.81 88.1 309.81 89.6C309.81 91.1 308.58 92.54 306.24 92.54C305.24 92.54 303 92.32 302.54 90.29C302.486 90.0168 302.462 89.7384 302.47 89.46C302.47 89.33 302.47 88.99 302.07 88.99C301.67 88.99 301.67 89.4 301.65 89.56V89.83C301.65 90.31 301.54 91.12 301.54 92.09C301.54 92.74 301.54 92.96 302.06 93.18C303.208 93.647 304.441 93.8717 305.68 93.84C307.113 93.8929 308.532 93.5467 309.78 92.84C310.483 92.4053 311.065 91.8013 311.474 91.0832C311.883 90.3652 312.105 89.5561 312.12 88.73C312.23 86.79 311.59 85.25 308.29 82.92L308.21 82.96ZM323.79 82.96L323.05 82.44C320.59 80.71 319.92 79.9 319.92 78.63C319.92 77.11 321.14 76.09 322.92 76.09C325.17 76.09 325.92 76.98 326.04 77.25C326.203 77.5977 326.311 77.9689 326.36 78.35C326.36 78.51 326.42 78.84 326.78 78.84C327.14 78.84 327.17 78.31 327.17 78.08C327.17 76.83 327.24 76.08 327.26 75.76C327.26 75.66 327.26 75.6 327.26 75.57C327.26 75.32 327.1 75.2 326.78 75.2C326.514 75.1571 326.253 75.0902 326 75C325.177 74.8322 324.339 74.7517 323.5 74.76C320.11 74.76 317.83 76.56 317.83 79.24C317.83 80.87 318.43 82.4 321.35 84.55L322.53 85.43C324.85 87.14 325.48 88.02 325.48 89.52C325.48 91.02 324.29 92.5 322 92.5C321 92.5 318.76 92.28 318.3 90.25C318.238 89.9778 318.211 89.6989 318.22 89.42C318.22 89.29 318.22 88.95 317.83 88.95C317.44 88.95 317.42 89.36 317.41 89.52V89.8C317.41 90.28 317.3 91.09 317.3 92.05C317.3 92.7 317.3 92.92 317.83 93.14C318.978 93.6086 320.211 93.8334 321.45 93.8C322.883 93.8513 324.302 93.5052 325.55 92.8C326.249 92.3612 326.828 91.7563 327.237 91.0392C327.645 90.322 327.869 89.515 327.89 88.69C327.81 86.79 327.16 85.25 323.87 82.92L323.79 82.96ZM352.99 83.96C352.99 89.7 348.47 93.86 342.25 93.86C335.07 93.86 331.79 88.92 331.79 84.34C331.79 80.67 334.68 74.86 342.41 74.86C348.82 74.8 353.07 78.46 353.07 83.9L352.99 83.96ZM342.3 76C337.61 76 334.8 78.83 334.8 83.58C334.8 88.8 338.19 92.45 343.04 92.45C344.22 92.45 350.12 92.07 350.12 84.53C350.12 78.7 346.06 76 342.3 76ZM374.51 88.73C374.14 88.73 374.08 89.06 374.04 89.26C373.897 89.9514 373.581 90.5951 373.12 91.13C372.05 92.13 370.35 92.26 368.67 92.26C362.84 92.26 359.35 87.96 359.35 83.8C359.35 81.8 359.63 79.52 361.66 77.8C362.95 76.67 364.89 76.12 367.59 76.12C369.397 76.0488 371.186 76.5039 372.74 77.43C373.061 77.7091 373.317 78.0553 373.49 78.444C373.662 78.8328 373.748 79.2547 373.74 79.68C373.74 79.94 373.74 80.39 374.16 80.39C374.58 80.39 374.59 79.94 374.61 79.7C374.63 79.46 374.61 79.22 374.61 78.85C374.61 78.48 374.61 77.7 374.67 77.25C374.73 76.8 374.74 76.43 374.77 76.25C374.777 76.1435 374.777 76.0365 374.77 75.93C374.77 75.5 374.37 75.47 374.23 75.46C373.334 75.3903 372.443 75.2735 371.56 75.11C370.283 74.916 368.992 74.819 367.7 74.82C364.12 74.82 361.45 75.67 359.5 77.41C358.575 78.253 357.832 79.2758 357.317 80.4158C356.801 81.5557 356.523 82.789 356.5 84.04C356.446 85.4077 356.713 86.7691 357.281 88.0145C357.849 89.2598 358.702 90.3544 359.77 91.21C361.97 92.99 364.77 93.82 368.61 93.82C370.238 93.8619 371.864 93.6734 373.44 93.26C373.98 93.04 374.07 92.95 374.25 92.44C374.521 91.4221 374.718 90.3861 374.84 89.34C374.9 88.91 374.7 88.76 374.51 88.76V88.73ZM386.12 92.68C385.9 92.68 385.33 92.68 384.96 92.59C384.34 92.52 384.2 92.17 384.11 91.47C383.98 90.47 383.98 88.57 383.98 86.36V82.21C383.98 78.53 383.98 77.86 384.04 77.11C384.1 76.36 384.27 76.05 384.83 75.95C385.039 75.9173 385.249 75.8972 385.46 75.89C385.512 75.8955 385.564 75.8904 385.613 75.8751C385.663 75.8597 385.708 75.8344 385.748 75.8007C385.787 75.767 385.819 75.7256 385.842 75.679C385.865 75.6325 385.878 75.5818 385.88 75.53C385.88 75.13 385.42 75.13 385.25 75.13C384.69 75.13 383.69 75.13 383.1 75.19H382.25C381.68 75.19 380.63 75.13 380 75.13C379.84 75.13 379.36 75.13 379.36 75.53C379.364 75.5822 379.378 75.6331 379.402 75.6797C379.426 75.7263 379.459 75.7676 379.499 75.8012C379.539 75.8348 379.585 75.86 379.635 75.8752C379.685 75.8905 379.738 75.8955 379.79 75.89C380.049 75.8879 380.308 75.9181 380.56 75.98C380.96 76.06 381.24 76.28 381.29 77.11C381.34 77.94 381.35 78.53 381.35 82.21V86.39C381.35 88.6 381.35 90.52 381.22 91.5C381.11 92.19 380.99 92.56 380.62 92.62C380.373 92.6736 380.122 92.7037 379.87 92.71C379.57 92.71 379.44 92.89 379.44 93.07C379.44 93.47 379.91 93.47 380.08 93.47C380.64 93.47 381.64 93.47 382.23 93.41H383C383.59 93.41 384.82 93.47 385.94 93.47C386.49 93.47 386.57 93.22 386.57 93.07C386.57 93.0147 386.557 92.9602 386.533 92.9104C386.509 92.8606 386.474 92.8169 386.431 92.7823C386.388 92.7478 386.338 92.7234 386.284 92.7109C386.23 92.6983 386.174 92.698 386.12 92.71V92.68ZM408.61 93.04C408.61 93.3 408.36 93.44 407.87 93.44C406.37 93.44 404.87 93.44 403.72 93.44H403.6C403.09 93.44 402.73 93.44 402.73 93.06C402.73 92.98 402.73 92.76 403.08 92.69C403.101 92.6428 403.112 92.5917 403.112 92.54C403.112 92.4883 403.101 92.4372 403.08 92.39L400.62 86.56H394.9C394.9 86.56 394.9 86.56 394.83 86.62L393.25 90.8C393.047 91.283 392.929 91.7971 392.9 92.32C392.9 92.65 393.36 92.79 393.69 92.79H394C394.43 92.79 394.48 93.04 394.48 93.15C394.48 93.26 394.37 93.55 393.87 93.55C393.37 93.55 392.93 93.55 392.48 93.55H391.81H391.21C390.6 93.55 389.67 93.61 388.83 93.61C388.61 93.61 388.12 93.61 388.12 93.21C388.12 93.03 388.25 92.85 388.56 92.85H389.31C390.36 92.72 390.86 91.99 391.31 90.75L397.31 76.04C397.62 75.27 397.77 74.98 398.09 74.98C398.41 74.98 398.56 75.26 398.86 75.98C398.98 76.24 399.4 77.23 399.98 78.59C401.44 82 403.87 87.7 404.98 90.27C405.87 92.27 406.56 92.64 407.12 92.78C407.445 92.8719 407.782 92.9157 408.12 92.91C408.53 92.71 408.61 92.91 408.61 93.07V93.04ZM397.61 78.9L395.33 85.18H400.07L397.61 78.9ZM423.38 74.9H423.12L422.61 74.99C422 75.0711 421.385 75.1078 420.77 75.1H410.87C410.55 75.1 409.54 75.1 408.8 74.99C408.507 74.9727 408.22 74.905 407.95 74.79C407.847 74.7382 407.735 74.7076 407.62 74.7C407.38 74.7 407.26 75.01 407.16 75.3C407.16 75.3 406.57 77.53 406.57 77.83C406.57 78.13 406.74 78.25 406.91 78.25C407.014 78.2443 407.114 78.2068 407.197 78.1424C407.279 78.078 407.339 77.9899 407.37 77.89C407.483 77.6413 407.624 77.4064 407.79 77.19C408.16 76.69 408.73 76.54 410.32 76.52L414.01 76.47V86.29C414.01 88.5 414.01 90.42 413.88 91.4C413.78 92.09 413.65 92.46 413.28 92.52C413.034 92.5744 412.782 92.6045 412.53 92.61C412.478 92.6029 412.426 92.6069 412.375 92.6217C412.325 92.6364 412.279 92.6617 412.239 92.6957C412.199 92.7297 412.167 92.7717 412.145 92.819C412.123 92.8663 412.111 92.9177 412.11 92.97C412.11 93.37 412.57 93.37 412.74 93.37C413.31 93.37 414.3 93.37 414.9 93.31H415.64C416.23 93.31 417.46 93.37 418.58 93.37C419.13 93.37 419.21 93.12 419.21 92.97C419.209 92.9177 419.197 92.8663 419.175 92.819C419.153 92.7717 419.121 92.7297 419.081 92.6957C419.041 92.6617 418.995 92.6364 418.945 92.6217C418.894 92.6069 418.842 92.6029 418.79 92.61C418.402 92.5996 418.015 92.5696 417.63 92.52C417.01 92.45 416.86 92.1 416.78 91.4C416.65 90.4 416.65 88.5 416.65 86.29V76.58H419.76C422.35 76.58 422.76 77.2 422.76 77.69V77.95C422.76 78.17 422.81 78.55 423.18 78.55C423.36 78.55 423.58 78.41 423.58 78.03C423.58 77.93 423.58 77.64 423.58 77.28C423.58 76.68 423.64 75.87 423.64 75.42C423.77 75.33 423.77 75 423.42 75L423.38 74.9ZM438.83 89.78C438.49 89.78 438.42 90.11 438.38 90.3C438.21 91.22 437.93 91.62 437.33 91.85C436.527 92.0575 435.698 92.1418 434.87 92.1C432.32 92.1 432.09 91.81 432.01 90.36C432.01 90 432.01 88.48 432.01 87.36V84.35C432.53 84.35 435.01 84.35 435.74 84.46C436.74 84.56 436.87 84.95 436.94 85.15C437.011 85.3797 437.041 85.6199 437.03 85.86C437.024 85.9153 437.03 85.9712 437.048 86.024C437.066 86.0767 437.095 86.1251 437.132 86.1658C437.17 86.2065 437.216 86.2387 437.268 86.2601C437.319 86.2815 437.374 86.2917 437.43 86.29C437.82 86.29 437.82 85.82 437.82 85.63C437.82 85.44 437.87 84.63 437.93 84.13C437.964 83.7939 438.017 83.46 438.09 83.13C438.116 83.025 438.133 82.9179 438.14 82.81C438.14 82.52 437.96 82.41 437.8 82.41C437.64 82.41 437.48 82.55 437.29 82.74C437.12 82.92 436.82 82.97 436.18 83.01C435.75 83.01 433.8 83.01 432.09 83.01V76.48C432.58 76.48 435.21 76.48 435.63 76.55C437.07 76.69 437.21 76.98 437.33 77.23C437.424 77.4756 437.472 77.7368 437.47 78C437.47 78.47 437.77 78.52 437.89 78.52C438.01 78.52 438.2 78.46 438.29 78.08C438.29 77.89 438.35 77.41 438.38 76.98C438.38 76.77 438.38 76.59 438.38 76.51C438.411 76.2369 438.461 75.9662 438.53 75.7C438.565 75.5933 438.585 75.4822 438.59 75.37C438.59 74.96 438.33 74.94 438.28 74.94C438.176 74.9473 438.074 74.9745 437.98 75.02H437.86C437.496 75.0796 437.129 75.1163 436.76 75.13C436.17 75.13 430.95 75.13 430.76 75.13H429.68C429.1 75.13 428.39 75.13 427.77 75.13C427.6 75.13 427.14 75.13 427.14 75.53C427.142 75.5818 427.155 75.6325 427.178 75.679C427.201 75.7256 427.233 75.767 427.272 75.8007C427.312 75.8344 427.357 75.8597 427.407 75.8751C427.456 75.8904 427.508 75.8955 427.56 75.89C427.848 75.8887 428.135 75.9087 428.42 75.95C429.18 76.1 429.34 76.38 429.42 77.11C429.5 77.84 429.48 78.53 429.48 82.21V86.39C429.48 88.6 429.48 90.52 429.35 91.5C429.24 92.19 429.12 92.56 428.75 92.62C428.503 92.6736 428.252 92.7037 428 92.71C427.948 92.7029 427.896 92.7069 427.845 92.7217C427.795 92.7364 427.749 92.7617 427.709 92.7957C427.669 92.8297 427.637 92.8717 427.615 92.919C427.593 92.9663 427.581 93.0177 427.58 93.07C427.58 93.47 428.04 93.47 428.21 93.47H428.88C429.16 93.47 429.46 93.47 429.75 93.47H430.8C431.21 93.47 431.92 93.47 432.85 93.54H433.43C434.38 93.54 435.68 93.6 437.32 93.6C438.32 93.6 438.71 93.6 438.95 92.83C439.11 92.0504 439.227 91.2625 439.3 90.47C439.24 90.26 439.24 89.85 438.87 89.85L438.83 89.78ZM450.56 82.85L449.82 82.33C447.36 80.6 446.69 79.79 446.69 78.52C446.69 77 447.91 75.98 449.69 75.98C451.93 75.98 452.69 76.87 452.81 77.14C452.97 77.4882 453.075 77.8594 453.12 78.24C453.12 78.4 453.19 78.73 453.54 78.73C453.89 78.73 453.94 78.2 453.94 77.97C453.94 76.72 454 75.97 454.03 75.65C454.033 75.5867 454.033 75.5233 454.03 75.46C454.03 75.21 453.87 75.09 453.56 75.09C453.263 75.0801 452.968 75.0399 452.68 74.97C451.857 74.8028 451.019 74.7223 450.18 74.73C446.79 74.73 444.5 76.53 444.5 79.21C444.5 80.84 445.1 82.37 448.02 84.52L449.21 85.4C451.53 87.11 452.16 87.99 452.16 89.49C452.16 90.99 451 92.5 448.69 92.5C447.69 92.5 445.44 92.28 444.98 90.25C444.926 89.9768 444.902 89.6984 444.91 89.42C444.91 89.29 444.91 88.95 444.52 88.95C444.13 88.95 444.11 89.36 444.09 89.52V89.8C444.09 90.28 443.98 91.09 443.98 92.05C443.98 92.7 443.98 92.92 444.5 93.14C445.651 93.6083 446.887 93.833 448.13 93.8C449.563 93.8503 450.981 93.5042 452.23 92.8C452.929 92.3612 453.508 91.7563 453.917 91.0392C454.325 90.322 454.549 89.515 454.57 88.69C454.55 86.79 453.9 85.25 450.6 82.92L450.56 82.85Z" fill="#6D6E71"/>
<path d="M214.19 107.77H217.34V108.6H213.34V100.6H214.2L214.19 107.77ZM224.28 100.6L227.71 108.6H226.77L225.65 106H222.15L221 108.6H220.05L223.48 100.6H223.79L223.86 100.43L223.94 100.6H224.28ZM225.28 105.18L223.9 101.9L222.52 105.18H225.28ZM236.41 107L231.73 100.56H231.35L231.15 100.28V100.56H230.86V108.56H231.72V102.04L236.47 108.56H236.85L236.99 108.76V108.56H237.28V100.56H236.41V107ZM247.11 102.42C247.506 103.067 247.717 103.811 247.72 104.57C247.71 105.397 247.46 106.203 247 106.89C246.569 107.614 245.89 108.157 245.09 108.42C244.558 108.536 244.014 108.583 243.47 108.56H241.31V100.56H243.65C244.302 100.529 244.952 100.648 245.55 100.91C246.208 101.266 246.75 101.804 247.11 102.46V102.42ZM246.4 102.89C246.108 102.391 245.691 101.978 245.19 101.69C244.711 101.47 244.186 101.371 243.66 101.4H242.17V107.73H243.7C244.167 107.75 244.633 107.675 245.07 107.51C245.386 107.353 245.671 107.14 245.91 106.88C246.223 106.577 246.473 106.216 246.644 105.816C246.816 105.416 246.906 104.985 246.91 104.55C246.889 103.974 246.713 103.414 246.4 102.93V102.89ZM254.74 104.46C254.283 104.191 253.782 104.005 253.26 103.91C252.839 103.835 252.444 103.656 252.11 103.39C252.005 103.288 251.924 103.165 251.872 103.028C251.821 102.892 251.799 102.746 251.81 102.6C251.797 102.415 251.825 102.229 251.892 102.056C251.96 101.883 252.065 101.727 252.2 101.6C252.333 101.474 252.49 101.375 252.662 101.31C252.834 101.245 253.016 101.214 253.2 101.22C253.371 101.208 253.542 101.23 253.704 101.286C253.866 101.342 254.015 101.43 254.142 101.545C254.269 101.66 254.372 101.799 254.444 101.955C254.515 102.11 254.555 102.279 254.56 102.45V102.69H255.44V102.36C255.381 101.811 255.13 101.301 254.73 100.92C254.32 100.557 253.787 100.364 253.24 100.38C252.938 100.37 252.636 100.422 252.354 100.532C252.073 100.642 251.816 100.808 251.6 101.02C251.381 101.224 251.208 101.472 251.092 101.748C250.977 102.024 250.921 102.321 250.93 102.62C250.921 103.082 251.077 103.533 251.37 103.89C251.842 104.355 252.446 104.662 253.1 104.77C253.445 104.839 253.781 104.95 254.1 105.1C254.325 105.211 254.512 105.386 254.638 105.603C254.765 105.82 254.824 106.069 254.81 106.32C254.807 106.508 254.765 106.694 254.688 106.866C254.61 107.038 254.499 107.193 254.36 107.32C254.21 107.464 254.033 107.577 253.839 107.653C253.645 107.728 253.438 107.765 253.23 107.76C252.842 107.774 252.465 107.633 252.18 107.37C251.887 107.069 251.704 106.678 251.66 106.26V106.01H250.78V106.32C250.821 106.943 251.1 107.527 251.56 107.95C252.009 108.379 252.609 108.612 253.23 108.6C253.55 108.605 253.867 108.547 254.164 108.428C254.461 108.31 254.732 108.134 254.96 107.91C255.188 107.694 255.368 107.433 255.49 107.144C255.612 106.855 255.674 106.544 255.67 106.23C255.661 105.889 255.572 105.555 255.411 105.254C255.249 104.954 255.02 104.695 254.74 104.5V104.46ZM263 101.27C263.735 101.284 264.442 101.553 265 102.03C265.233 102.209 265.439 102.421 265.61 102.66L265.69 102.78H266.69L266.41 102.34C266.05 101.79 265.567 101.332 265 101C264.214 100.57 263.31 100.406 262.424 100.532C261.537 100.658 260.715 101.068 260.08 101.7C259.692 102.081 259.383 102.535 259.173 103.037C258.962 103.538 258.854 104.076 258.854 104.62C258.854 105.164 258.962 105.702 259.173 106.203C259.383 106.705 259.692 107.159 260.08 107.54C260.714 108.179 261.54 108.594 262.432 108.72C263.324 108.847 264.233 108.678 265.02 108.24C265.622 107.928 266.125 107.453 266.47 106.87L266.72 106.44H265.72L265.64 106.56C265.514 106.725 265.373 106.879 265.22 107.02C265.041 107.184 264.851 107.334 264.65 107.47C264.153 107.772 263.581 107.928 263 107.92C262.562 107.922 262.129 107.835 261.726 107.663C261.324 107.491 260.961 107.238 260.66 106.92C260.34 106.622 260.087 106.262 259.914 105.86C259.742 105.459 259.656 105.027 259.66 104.59C259.652 104.155 259.731 103.723 259.894 103.32C260.056 102.917 260.298 102.55 260.605 102.242C260.912 101.934 261.278 101.691 261.681 101.528C262.084 101.364 262.515 101.283 262.95 101.29L263 101.27ZM273.22 100.56L276.65 108.56H275.71L274.59 106H271.09L270 108.6H269L272.43 100.6H272.74L272.81 100.43L272.88 100.6L273.22 100.56ZM274.22 105.14L272.84 101.86L271.46 105.14H274.22ZM284.38 101.76C284.585 102.13 284.692 102.547 284.69 102.97C284.691 103.411 284.577 103.846 284.36 104.23C284.143 104.618 283.811 104.929 283.41 105.12C282.893 105.299 282.346 105.377 281.8 105.35H280.66V108.56H279.8V100.56H282C282.524 100.528 283.047 100.632 283.52 100.86C283.892 101.083 284.19 101.41 284.38 101.8V101.76ZM280.66 104.51H281.81C282.335 104.56 282.861 104.437 283.31 104.16C283.484 104.012 283.621 103.825 283.711 103.616C283.801 103.406 283.842 103.178 283.83 102.95C283.83 102.671 283.762 102.396 283.63 102.15C283.51 101.919 283.326 101.728 283.1 101.6C282.673 101.425 282.21 101.356 281.75 101.4H280.66V104.51ZM288.17 108.51H292.81V107.68H289V105H292.78V104.16H289V101.44H292.78V100.6H288.14L288.17 108.51ZM305.52 100.51L308.95 108.51H308L306.89 106H303.39L302.28 108.58H301.33L304.76 100.58H305.07L305.14 100.41L305.21 100.58L305.52 100.51ZM306.52 105.09L305.14 101.81L303.76 105.09H306.52ZM317.4 103.09C317.4 102.63 317.286 102.176 317.07 101.77C316.871 101.379 316.562 101.056 316.18 100.84C315.511 100.57 314.789 100.457 314.07 100.51H312.07V108.51H313V101.35H314.12C314.59 101.35 314.91 101.35 315.05 101.35C315.321 101.372 315.584 101.454 315.82 101.59C316.052 101.745 316.238 101.959 316.36 102.21C316.505 102.477 316.581 102.776 316.58 103.08C316.596 103.371 316.537 103.662 316.409 103.924C316.281 104.187 316.089 104.412 315.85 104.58C315.463 104.794 315.021 104.891 314.58 104.86H313.58L316.16 108.49H317.24L315.24 105.69C315.823 105.64 316.365 105.372 316.76 104.94C317.179 104.45 317.406 103.825 317.4 103.18V103.09ZM324.77 101.22C325.505 101.234 326.212 101.503 326.77 101.98C327.003 102.159 327.209 102.371 327.38 102.61L327.46 102.73H328.46L328.18 102.29C327.805 101.709 327.293 101.228 326.69 100.89C325.904 100.46 325 100.296 324.114 100.422C323.227 100.548 322.405 100.958 321.77 101.59C321.382 101.971 321.073 102.425 320.863 102.927C320.652 103.428 320.544 103.966 320.544 104.51C320.544 105.054 320.652 105.592 320.863 106.093C321.073 106.595 321.382 107.049 321.77 107.43C322.404 108.069 323.23 108.484 324.122 108.61C325.014 108.737 325.923 108.568 326.71 108.13C327.314 107.821 327.817 107.346 328.16 106.76L328.41 106.33H327.41L327.33 106.45C327.204 106.615 327.063 106.769 326.91 106.91C326.733 107.076 326.543 107.227 326.34 107.36C325.843 107.662 325.271 107.818 324.69 107.81C324.252 107.812 323.819 107.725 323.416 107.553C323.014 107.381 322.651 107.128 322.35 106.81C322.031 106.512 321.777 106.152 321.604 105.75C321.432 105.349 321.346 104.917 321.35 104.48C321.342 104.045 321.421 103.613 321.584 103.21C321.746 102.807 321.988 102.44 322.295 102.132C322.602 101.824 322.968 101.581 323.371 101.418C323.774 101.254 324.205 101.173 324.64 101.18L324.77 101.22ZM336.3 104.07H332.7V100.6H331.84V108.6H332.7V105H336.3V108.6H337.16V100.6H336.3V104.07ZM341.19 108.51H342.05V100.51H341.19V108.51ZM345.36 101.35H347.36V108.51H348.22V101.35H350.22V100.51H345.4L345.36 101.35ZM353.6 108.51H358.23V107.68H354.46V105H358.23V104.16H354.46V101.44H358.23V100.6H353.6V108.51ZM365.68 101.22C366.415 101.234 367.122 101.503 367.68 101.98C367.913 102.159 368.119 102.371 368.29 102.61L368.37 102.73H369.37L369.09 102.29C368.715 101.709 368.203 101.228 367.6 100.89C366.814 100.46 365.91 100.296 365.024 100.422C364.137 100.548 363.315 100.958 362.68 101.59C362.292 101.971 361.983 102.425 361.773 102.927C361.562 103.428 361.454 103.966 361.454 104.51C361.454 105.054 361.562 105.592 361.773 106.093C361.983 106.595 362.292 107.049 362.68 107.43C363.314 108.069 364.141 108.484 365.032 108.61C365.924 108.737 366.833 108.568 367.62 108.13C368.222 107.818 368.725 107.343 369.07 106.76L369.32 106.33H368.32L368.24 106.45C368.114 106.615 367.973 106.769 367.82 106.91C367.641 107.074 367.451 107.224 367.25 107.36C366.753 107.662 366.181 107.818 365.6 107.81C365.162 107.812 364.729 107.725 364.326 107.553C363.924 107.381 363.561 107.128 363.26 106.81C362.941 106.512 362.687 106.152 362.514 105.75C362.342 105.349 362.256 104.917 362.26 104.48C362.252 104.045 362.331 103.613 362.494 103.21C362.656 102.807 362.898 102.44 363.205 102.132C363.512 101.824 363.878 101.581 364.281 101.418C364.684 101.254 365.115 101.173 365.55 101.18L365.68 101.22ZM372.03 101.35H374.03V108.51H374.9V101.35H376.9V100.51H372.04L372.03 101.35ZM383.49 104.41C383.021 104.188 382.517 104.05 382 104C381.582 103.925 381.19 103.746 380.86 103.48C380.754 103.379 380.671 103.256 380.617 103.12C380.563 102.983 380.541 102.836 380.55 102.69C380.537 102.505 380.565 102.319 380.632 102.146C380.7 101.973 380.805 101.817 380.94 101.69C381.21 101.437 381.57 101.3 381.94 101.31C382.71 101.31 383.14 101.7 383.3 102.54V102.78H384.18L384.13 102.45C384.071 101.901 383.82 101.391 383.42 101.01C383.012 100.644 382.478 100.451 381.93 100.47C381.628 100.461 381.327 100.513 381.045 100.623C380.763 100.733 380.506 100.899 380.29 101.11C380.073 101.315 379.901 101.564 379.786 101.839C379.67 102.115 379.614 102.411 379.62 102.71C379.61 103.174 379.77 103.626 380.07 103.98C380.538 104.445 381.139 104.753 381.79 104.86C382.135 104.931 382.471 105.042 382.79 105.19C383.013 105.303 383.199 105.479 383.325 105.695C383.451 105.912 383.512 106.16 383.5 106.41C383.497 106.599 383.454 106.786 383.375 106.958C383.296 107.13 383.182 107.284 383.04 107.41C382.891 107.556 382.714 107.669 382.52 107.745C382.326 107.821 382.118 107.856 381.91 107.85C381.539 107.854 381.181 107.714 380.91 107.46C380.61 107.163 380.423 106.77 380.38 106.35V106.1H379.51V106.41C379.551 107.033 379.83 107.617 380.29 108.04C380.751 108.471 381.359 108.711 381.99 108.711C382.621 108.711 383.229 108.471 383.69 108.04C383.921 107.826 384.104 107.566 384.228 107.276C384.352 106.987 384.414 106.675 384.41 106.36C384.424 105.998 384.347 105.638 384.187 105.313C384.026 104.988 383.786 104.709 383.49 104.5V104.41ZM204.08 107.41H143.45V108.17H204.08V107.41ZM454.69 107.41H394.07V108.17H454.69V107.41Z" fill="#7E864C"/>
<path d="M67.06 51.42L16 0.35H63.52L90.83 27.66L67.06 51.42ZM51.14 40.71L27.38 16.94L0 44.32V91.85L51.14 40.71ZM24.78 14.34L10.78 0.34H0V39.12L24.78 14.34ZM14 83.08L0 97.08V107.7H38.6L14 83.08ZM107.37 69.08L82.63 93.79L96.54 107.7H107.35L107.37 69.08ZM40.37 56.72L16.58 80.47L43.81 107.7H91.34L40.37 56.72ZM68.73 0.35L93.43 25.05L107.35 11.13V0.35H68.73ZM56.27 67.42L80 91.19L107.32 63.87V16.34L56.27 67.42Z" fill="#7F864D"/>
</svg>
